<svg width="140" height="44" viewBox="0 0 140 44" fill="none" xmlns="http://www.w3.org/2000/svg">
<path d="M68.7155 18.3838H58.0582L55.8812 23.4526H50.78L61.3073 0.545898H65.3688L75.8961 23.4526H70.8924L68.7155 18.3838ZM67.0584 14.5498L63.3868 5.97201L59.7152 14.5498H67.0584Z" fill="white"/>
<path d="M81.5489 0.545898H86.6176V19.3261H96.8525V23.4526H81.5489V0.545898Z" fill="white"/>
<path d="M103.594 0.545898H108.662V23.4526H103.594V0.545898Z" fill="white"/>
<path d="M132.248 18.3838H121.591L119.414 23.4526H114.313L124.84 0.545898H128.902L139.429 23.4526H134.425L132.248 18.3838ZM130.591 14.5498L126.92 5.97201L123.248 14.5498H130.591Z" fill="white"/>
<path d="M50.4558 35.7036H51.3962V42.9855H55.4442V43.7883H50.4558V35.7036Z" fill="white"/>
<path d="M61.0065 35.7036H61.9469V43.7883H61.0065V35.7036Z" fill="white"/>
<path d="M68.2983 35.7036H73.2982V36.4948H69.2272V39.2815H73.0689V40.0727H69.2272V43.7883H68.2983V35.7036Z" fill="white"/>
<path d="M79.0394 35.7036H84.154V36.4834H79.9683V39.2929H83.9246V40.0727H79.9683V43.0085H84.154V43.7883H79.0394V35.7036Z" fill="white"/>
<path d="M92.5284 43.88C91.267 43.88 90.2578 43.5398 89.501 42.8594L89.8679 42.1369C90.2655 42.4733 90.6707 42.7141 91.0835 42.8594C91.504 43.0046 91.9894 43.0773 92.5399 43.0773C93.1897 43.0773 93.6905 42.9511 94.0422 42.6988C94.3938 42.4465 94.5697 42.091 94.5697 41.6323C94.5697 41.3648 94.4856 41.1469 94.3174 40.9787C94.1492 40.8105 93.9275 40.6767 93.6522 40.5773C93.377 40.4779 93.0062 40.3747 92.5399 40.2677C91.913 40.1224 91.3969 39.9695 90.9918 39.809C90.5942 39.6484 90.2693 39.4191 90.017 39.1209C89.7724 38.8228 89.65 38.4329 89.65 37.9512C89.65 37.4925 89.7685 37.0873 90.0055 36.7356C90.2502 36.3763 90.5942 36.1011 91.0376 35.91C91.4887 35.7112 92.0086 35.6118 92.5972 35.6118C93.1553 35.6118 93.6752 35.6997 94.1568 35.8756C94.6461 36.0514 95.0589 36.3037 95.3953 36.6324L95.0398 37.3549C94.6576 37.0262 94.2677 36.7892 93.8701 36.6439C93.4802 36.491 93.0559 36.4146 92.5972 36.4146C91.9703 36.4146 91.4772 36.5483 91.1179 36.8159C90.7662 37.0759 90.5904 37.4428 90.5904 37.9168C90.5904 38.322 90.7471 38.6278 91.0606 38.8342C91.374 39.0406 91.848 39.2165 92.4825 39.3617C93.1783 39.5299 93.7249 39.6867 94.1224 39.8319C94.52 39.9695 94.8487 40.1798 95.1086 40.4626C95.3762 40.7455 95.51 41.1239 95.51 41.5979C95.51 42.0566 95.3877 42.458 95.143 42.802C94.906 43.1461 94.562 43.4136 94.111 43.6048C93.6599 43.7883 93.1324 43.88 92.5284 43.88Z" fill="white"/>
<path d="M103.177 36.5063H100.367V35.7036H106.949V36.5063H104.128V43.7883H103.177V36.5063Z" fill="white"/>
<path d="M115.452 39.9695V43.7883H114.512V39.9581L111.335 35.7036H112.425L114.993 39.1897L117.562 35.7036H118.629L115.452 39.9695Z" fill="white"/>
<path d="M123.784 35.7036H124.725V42.9855H128.773V43.7883H123.784V35.7036Z" fill="white"/>
<path d="M134.335 35.7036H139.45V36.4834H135.264V39.2929H139.22V40.0727H135.264V43.0085H139.45V43.7883H134.335V35.7036Z" fill="white"/>
<path fill-rule="evenodd" clip-rule="evenodd" d="M53.999 0.537324L27.2822 43.7986L0.658691 0.534058L5.80499 0.534078L27.2822 35.4816L48.8624 0.537324H53.999Z" fill="white"/>
<path fill-rule="evenodd" clip-rule="evenodd" d="M45.3728 0.536152L27.2863 29.9381L9.17749 0.534071H14.2644L27.2771 21.5974L40.0763 0.536152H45.3728Z" fill="white"/>
</svg>
